<?xml version="1.0" encoding="UTF-8" standalone="no"?>
<!-- Created with Inkscape (http://www.inkscape.org/) -->

<svg
   xmlns:osb="http://www.openswatchbook.org/uri/2009/osb"
   xmlns:dc="http://purl.org/dc/elements/1.1/"
   xmlns:cc="http://creativecommons.org/ns#"
   xmlns:rdf="http://www.w3.org/1999/02/22-rdf-syntax-ns#"
   xmlns:svg="http://www.w3.org/2000/svg"
   xmlns="http://www.w3.org/2000/svg"
   xmlns:xlink="http://www.w3.org/1999/xlink"
   xmlns:sodipodi="http://sodipodi.sourceforge.net/DTD/sodipodi-0.dtd"
   xmlns:inkscape="http://www.inkscape.org/namespaces/inkscape"
   width="135.30499mm"
   height="83.991783mm"
   viewBox="0 0 135.30499 83.991783"
   version="1.1"
   id="svg8"
   inkscape:version="0.92.4 (5da689c313, 2019-01-14)"
   sodipodi:docname="obs logo - Copy.svg"
   inkscape:export-filename="C:\Users\Recko\Desktop\pouseidon-free-html5-model-agency-bootstrap-template\o.png"
   inkscape:export-xdpi="96"
   inkscape:export-ydpi="96">
  <defs
     id="defs2">
    <linearGradient
       inkscape:collect="always"
       id="linearGradient1108">
      <stop
         style="stop-color:#803300;stop-opacity:1;"
         offset="0"
         id="stop1104" />
      <stop
         style="stop-color:#803300;stop-opacity:0;"
         offset="1"
         id="stop1106" />
    </linearGradient>
    <linearGradient
       inkscape:collect="always"
       id="linearGradient876">
      <stop
         style="stop-color:#803300;stop-opacity:1;"
         offset="0"
         id="stop872" />
      <stop
         style="stop-color:#803300;stop-opacity:0;"
         offset="1"
         id="stop874" />
    </linearGradient>
    <linearGradient
       id="linearGradient2720"
       osb:paint="solid">
      <stop
         style="stop-color:#a05a2c;stop-opacity:1;"
         offset="0"
         id="stop2718" />
    </linearGradient>
    <linearGradient
       id="linearGradient1278"
       osb:paint="gradient">
      <stop
         style="stop-color:#a05a2c;stop-opacity:1;"
         offset="0"
         id="stop1274" />
      <stop
         style="stop-color:#a05a2c;stop-opacity:0;"
         offset="1"
         id="stop1276" />
    </linearGradient>
    <linearGradient
       inkscape:collect="always"
       xlink:href="#linearGradient876"
       id="linearGradient880"
       gradientUnits="userSpaceOnUse"
       x1="102.91194"
       y1="94.653702"
       x2="104.24536"
       y2="128.72496"
       gradientTransform="matrix(0.15451254,0,0,0.15451254,87.097032,71.526969)" />
    <linearGradient
       inkscape:collect="always"
       xlink:href="#linearGradient1108"
       id="linearGradient1110"
       x1="105.55921"
       y1="100.47453"
       x2="109.28316"
       y2="-37.373367"
       gradientUnits="userSpaceOnUse"
       gradientTransform="matrix(0.15451254,0,0,0.15451254,86.687996,70.627577)" />
  </defs>
  <sodipodi:namedview
     id="base"
     pagecolor="#ffffff"
     bordercolor="#666666"
     borderopacity="1.0"
     inkscape:pageopacity="0.0"
     inkscape:pageshadow="2"
     inkscape:zoom="0.5"
     inkscape:cx="54.452796"
     inkscape:cy="157.36266"
     inkscape:document-units="mm"
     inkscape:current-layer="g1395"
     showgrid="false"
     inkscape:window-width="1366"
     inkscape:window-height="705"
     inkscape:window-x="-8"
     inkscape:window-y="-8"
     inkscape:window-maximized="1"
     borderlayer="false" />
  <metadata
     id="metadata5">
    <rdf:RDF>
      <cc:Work
         rdf:about="">
        <dc:format>image/svg+xml</dc:format>
        <dc:type
           rdf:resource="http://purl.org/dc/dcmitype/StillImage" />
        <dc:title />
      </cc:Work>
    </rdf:RDF>
  </metadata>
  <g
     inkscape:label="Layer 1"
     inkscape:groupmode="layer"
     id="layer1"
     transform="translate(-38.739634,-102.31238)">
    <g
       id="g1395"
       inkscape:export-xdpi="96"
       inkscape:export-ydpi="96"
       transform="translate(-1.5444315,12.920351)">
      <g
         id="g947"
         transform="matrix(7.1951437,0,0,7.1951437,-634.5919,-496.836)">
        <path
           inkscape:export-ydpi="96"
           inkscape:export-xdpi="96"
           inkscape:connector-curvature="0"
           id="path967"
           d="m 95.64919,91.021876 -0.07972,-0.02863 v -1.913973 z"
           style="fill:#aa4400;stroke:none;stroke-width:0.03874059px;stroke-linecap:butt;stroke-linejoin:miter;stroke-opacity:1" />
        <path
           inkscape:export-ydpi="96"
           inkscape:export-xdpi="96"
           style="fill:none;stroke:#aa4400;stroke-width:0.10220361;stroke-linecap:butt;stroke-linejoin:miter;stroke-miterlimit:4;stroke-dasharray:none;stroke-opacity:1"
           d="m 93.965913,87.434949 c 0.758831,0.710642 2.70892,1.550516 2.717109,1.543165 l -1.027386,0.08735 c 2.509417,1.159355 8.828794,2.68848 15.034464,0.02596 l -0.95102,-0.134531 c 1.14068,-0.41371 2.17569,-1.05614 2.66437,-1.493704 0.52346,-0.468704 -0.49105,1.008052 -0.94847,1.876077 0.31166,0.20108 0.66547,0.381508 1.05376,0.582854 -0.49018,0.463616 -1.14045,0.833179 -1.73446,1.116245 l -0.0106,0.505155 c -4.58753,2.188507 -11.159524,1.948578 -15.147549,0 l -0.01055,-0.521642 c -0.857345,-0.395181 -1.333804,-0.732523 -1.723905,-1.120982 0.334206,-0.173271 0.717868,-0.373485 1.069579,-0.549879 0,0 -1.468562,-2.368554 -0.985393,-1.916065 z"
           id="path922"
           inkscape:connector-curvature="0"
           sodipodi:nodetypes="cccccsccccccccsc" />
        <path
           inkscape:export-ydpi="96"
           inkscape:export-xdpi="96"
           style="fill:#aa4400;stroke:none;stroke-width:0.03874059px;stroke-linecap:butt;stroke-linejoin:miter;stroke-opacity:1"
           d="m 110.73402,91.015749 0.0797,-0.02863 v -1.913972 z"
           id="path965"
           inkscape:connector-curvature="0" />
        <path
           id="path969"
           d="m 96.67888,91.251901 -0.282422,-0.331826 -0.420217,0.02973 0.213026,-0.354047 -0.180875,-0.393366 0.414077,0.113012 0.308431,-0.272846 0.04289,0.423893 0.371495,0.224739 -0.38757,0.148969 z"
           inkscape:transform-center-y="0.12723479"
           inkscape:transform-center-x="-0.34186792"
           style="opacity:1;fill:#aa4400;fill-opacity:1;stroke:none;stroke-width:0.08069257;stroke-miterlimit:4;stroke-dasharray:none;stroke-opacity:1"
           inkscape:connector-curvature="0"
           inkscape:export-xdpi="96"
           inkscape:export-ydpi="96" />
        <path
           id="path986"
           d="m 109.77007,91.251901 0.28243,-0.331826 0.42022,0.02973 -0.21303,-0.354047 0.18088,-0.393366 -0.41408,0.113012 -0.30844,-0.272846 -0.0429,0.423893 -0.37149,0.224739 0.38757,0.148969 z"
           inkscape:transform-center-y="0.12723479"
           inkscape:transform-center-x="0.34187184"
           style="opacity:1;fill:#aa4400;fill-opacity:1;stroke:none;stroke-width:0.08069257;stroke-miterlimit:4;stroke-dasharray:none;stroke-opacity:1"
           inkscape:connector-curvature="0"
           inkscape:export-xdpi="96"
           inkscape:export-ydpi="96" />
        <path
           sodipodi:nodetypes="cccc"
           style="fill:#fff000;fill-opacity:0;stroke:none;stroke-width:0.03874059px;stroke-linecap:butt;stroke-linejoin:miter;stroke-opacity:1"
           d="m 109.7269,88.971021 0.0145,0.53703 1.0724,-0.434906 z"
           id="path998"
           inkscape:connector-curvature="0"
           inkscape:export-xdpi="96"
           inkscape:export-ydpi="96" />
        <path
           sodipodi:nodetypes="cccc"
           inkscape:connector-curvature="0"
           id="path1000"
           d="m 96.706969,88.971021 -0.01444,0.53703 -1.036886,-0.442588 z"
           style="fill:#aa4400;stroke:none;stroke-width:0.03874059px;stroke-linecap:butt;stroke-linejoin:miter;stroke-opacity:1"
           inkscape:export-xdpi="96"
           inkscape:export-ydpi="96" />
        <path
           style="opacity:1;fill:url(#linearGradient1110);fill-opacity:1;stroke:url(#linearGradient880);stroke-width:0.12268296;stroke-linecap:butt;stroke-linejoin:miter;stroke-miterlimit:4;stroke-dasharray:none;stroke-opacity:1"
           d="m 103.24513,81.536855 a 9.6753452,5.587201 0 0 0 -4.347094,0.597093 c -1.255343,4.988444 1.192964,8.004677 4.306204,9.282645 3.1171,-1.279546 5.56741,-4.301766 4.30133,-9.30125 a 9.6753452,5.587201 0 0 0 -4.26044,-0.578488 z"
           id="path864"
           inkscape:connector-curvature="0"
           inkscape:export-xdpi="96"
           inkscape:export-ydpi="96" />
        <path
           style="fill:#ffffff;fill-opacity:1;stroke:none;stroke-width:0.00817629;stroke-linecap:butt;stroke-linejoin:miter;stroke-miterlimit:4;stroke-dasharray:none;stroke-opacity:1"
           d="m 100.57619,87.005813 c 0.22782,0.527235 1.02856,0.681267 1.64549,0.889172 0.15025,0.05063 0.22286,0.10122 0.49568,0.459916 l -0.10732,0.04088 c -0.15078,-0.147429 -0.24596,-0.330768 -0.39859,-0.378154 -0.54418,-0.168952 -1.21373,-0.291702 -1.4564,-0.597891 z"
           id="path1044"
           inkscape:connector-curvature="0"
           sodipodi:nodetypes="ssccscs"
           inkscape:export-xdpi="96"
           inkscape:export-ydpi="96" />
        <g
           id="g1054"
           transform="matrix(0.15451254,0,0,0.15451254,87.075082,71.606033)"
           style="stroke:#ffffff;stroke-width:0.39687499;stroke-miterlimit:4;stroke-dasharray:none;stroke-opacity:1"
           inkscape:export-xdpi="96"
           inkscape:export-ydpi="96">
          <path
             sodipodi:nodetypes="ccc"
             inkscape:connector-curvature="0"
             id="path1048"
             d="m 81.330381,77.451447 c 6.03899,2.677294 13.865069,3.588167 17.679845,8.044813 2.673464,4.187051 0.0971,10.289091 2.806324,16.27671"
             style="fill:none;stroke:#ffffff;stroke-width:0.39687499;stroke-linecap:butt;stroke-linejoin:miter;stroke-miterlimit:4;stroke-dasharray:none;stroke-opacity:1" />
          <path
             style="fill:none;stroke:#ffffff;stroke-width:0.39687499;stroke-linecap:butt;stroke-linejoin:miter;stroke-miterlimit:4;stroke-dasharray:none;stroke-opacity:1"
             d="m 127.44324,77.451447 c -6.03899,2.677294 -13.86507,3.588167 -17.67987,8.044813 -2.67347,4.187051 -0.0971,10.289091 -2.80633,16.27671"
             id="path1050"
             inkscape:connector-curvature="0"
             sodipodi:nodetypes="ccc" />
        </g>
        <path
           sodipodi:nodetypes="ssccscs"
           inkscape:connector-curvature="0"
           id="path1058"
           d="m 105.90613,87.005813 c -0.22781,0.527235 -1.02856,0.681267 -1.64548,0.889172 -0.15025,0.05063 -0.22287,0.10122 -0.49568,0.459916 l 0.10732,0.04088 c 0.15077,-0.147429 0.24596,-0.330768 0.39858,-0.378154 0.54418,-0.168952 1.21374,-0.291702 1.4564,-0.597891 z"
           style="fill:#ffffff;fill-opacity:1;stroke:none;stroke-width:0.00817629;stroke-linecap:butt;stroke-linejoin:miter;stroke-miterlimit:4;stroke-dasharray:none;stroke-opacity:1"
           inkscape:export-xdpi="96"
           inkscape:export-ydpi="96" />
        <path
           style="fill:none;stroke:#ffffff;stroke-width:0.06132217;stroke-linecap:butt;stroke-linejoin:miter;stroke-miterlimit:4;stroke-dasharray:none;stroke-opacity:1"
           d="m 105.70647,84.127882 c 0.60966,0.21673 0.80846,0.597802 0.74437,1.084033"
           id="path1060"
           inkscape:connector-curvature="0"
           sodipodi:nodetypes="cc"
           inkscape:export-xdpi="96"
           inkscape:export-ydpi="96" />
        <path
           style="fill:none;stroke:#ffffff;stroke-width:0.06132217;stroke-linecap:butt;stroke-linejoin:miter;stroke-miterlimit:4;stroke-dasharray:none;stroke-opacity:1"
           d="m 106.17622,85.110739 c 0.47586,0.36689 0.46544,0.834389 0.39025,1.315292"
           id="path1062"
           inkscape:connector-curvature="0"
           sodipodi:nodetypes="cc"
           inkscape:export-xdpi="96"
           inkscape:export-ydpi="96" />
        <path
           style="fill:none;stroke:#ffffff;stroke-width:0.06132217;stroke-linecap:butt;stroke-linejoin:miter;stroke-miterlimit:4;stroke-dasharray:none;stroke-opacity:1"
           d="m 105.81487,87.596787 c 0.33217,-0.328427 0.93752,-0.675551 0.51311,-1.279158"
           id="path1064"
           inkscape:connector-curvature="0"
           sodipodi:nodetypes="cc"
           inkscape:export-xdpi="96"
           inkscape:export-ydpi="96" />
        <path
           sodipodi:nodetypes="cc"
           inkscape:connector-curvature="0"
           id="path1066"
           d="m 100.72544,84.127882 c -0.60966,0.21673 -0.808461,0.597802 -0.744372,1.084033"
           style="fill:none;stroke:#ffffff;stroke-width:0.06132217;stroke-linecap:butt;stroke-linejoin:miter;stroke-miterlimit:4;stroke-dasharray:none;stroke-opacity:1"
           inkscape:export-xdpi="96"
           inkscape:export-ydpi="96" />
        <path
           sodipodi:nodetypes="cc"
           inkscape:connector-curvature="0"
           id="path1068"
           d="m 100.25569,85.110739 c -0.475857,0.36689 -0.465441,0.834389 -0.390248,1.315292"
           style="fill:none;stroke:#ffffff;stroke-width:0.06132217;stroke-linecap:butt;stroke-linejoin:miter;stroke-miterlimit:4;stroke-dasharray:none;stroke-opacity:1"
           inkscape:export-xdpi="96"
           inkscape:export-ydpi="96" />
        <path
           sodipodi:nodetypes="cc"
           inkscape:connector-curvature="0"
           id="path1070"
           d="m 100.61704,87.596787 c -0.33217,-0.328427 -0.937523,-0.675551 -0.51311,-1.279158"
           style="fill:none;stroke:#ffffff;stroke-width:0.06132217;stroke-linecap:butt;stroke-linejoin:miter;stroke-miterlimit:4;stroke-dasharray:none;stroke-opacity:1"
           inkscape:export-xdpi="96"
           inkscape:export-ydpi="96" />
        <path
           style="fill:#ffffff;fill-opacity:1;stroke:none;stroke-width:0.02044073;stroke-linecap:butt;stroke-linejoin:miter;stroke-miterlimit:4;stroke-dasharray:none;stroke-opacity:1"
           d="m 100.35646,86.945187 0.11754,-0.07665 -0.092,0.894282 -0.1022,0.168636 -0.0102,-0.153306 c -0.15681,-0.02656 -0.14824,0.0794 -0.16353,0.168635 -0.0365,0.26592 -0.068,0.534245 0.10731,1.144682 0.029,0.05889 0.0523,0.122614 0.17375,0.102204 l 0.0204,-0.09199 0.0971,0.046 c 0.20896,0.553452 0.31768,0.734622 0.43437,0.945384 l -0.28617,-0.26573 -0.22485,-0.608111 c -0.053,0.03332 -0.0811,0.110116 -0.18396,0.05621 -0.0352,-0.0054 -0.0231,0.0022 -0.13798,-0.189077 -0.190774,-0.424953 -0.199225,-0.882276 -0.178858,-1.333757 0.0281,-0.117448 0.04691,-0.201019 0.148198,-0.183966 0.13182,0.02398 0.15489,0.06254 0.20441,0.112424 z"
           id="path1072"
           inkscape:connector-curvature="0"
           sodipodi:nodetypes="ccccccccccccccccccc"
           inkscape:export-xdpi="96"
           inkscape:export-ydpi="96" />
        <path
           sodipodi:nodetypes="ccccccccccccccccccc"
           inkscape:connector-curvature="0"
           id="path1074"
           d="m 106.06208,86.945187 -0.11754,-0.07665 0.092,0.894282 0.1022,0.168636 0.0102,-0.153306 c 0.15681,-0.02656 0.14823,0.0794 0.16352,0.168635 0.0366,0.26592 0.068,0.534245 -0.10731,1.144682 -0.029,0.05889 -0.0523,0.122614 -0.17374,0.102204 l -0.0204,-0.09199 -0.0971,0.046 c -0.20895,0.553452 -0.31767,0.734622 -0.43436,0.945384 l 0.28617,-0.26573 0.22484,-0.608111 c 0.053,0.03332 0.0811,0.110116 0.18398,0.05621 0.0352,-0.0054 0.0231,0.0022 0.13797,-0.189077 0.19076,-0.424953 0.19922,-0.882276 0.17885,-1.333757 -0.0281,-0.117448 -0.0469,-0.201019 -0.14819,-0.183966 -0.13182,0.02398 -0.15489,0.06254 -0.2044,0.112424 z"
           style="fill:#ffffff;fill-opacity:1;stroke:none;stroke-width:0.02044073;stroke-linecap:butt;stroke-linejoin:miter;stroke-miterlimit:4;stroke-dasharray:none;stroke-opacity:1"
           inkscape:export-xdpi="96"
           inkscape:export-ydpi="96" />
        <g
           aria-label="     Open Brain Society"
           transform="matrix(0.15451254,0,0,0.15451254,86.868376,67.235476)"
           style="font-style:normal;font-variant:normal;font-weight:bold;font-stretch:normal;font-size:9.17222214px;line-height:1.25;font-family:Cambria;-inkscape-font-specification:'Cambria, Bold';font-variant-ligatures:normal;font-variant-caps:normal;font-variant-numeric:normal;font-feature-settings:normal;text-align:start;letter-spacing:0px;word-spacing:0px;writing-mode:lr-tb;text-anchor:start;opacity:0.95;fill:#aa4400;fill-opacity:1;stroke:#aa4400;stroke-width:0.05344583;stroke-miterlimit:4;stroke-dasharray:none;stroke-opacity:1"
           id="text1116"
           inkscape:export-xdpi="96"
           inkscape:export-ydpi="96">
          <path
             inkscape:connector-curvature="0"
             d="m 69.90957,156.96946 q -1.254325,-0.4005 -1.651443,-1.33594 -0.392852,-0.93408 0.07441,-2.39746 0.306511,-0.95994 0.826028,-1.54158 0.525146,-0.58454 1.231246,-0.7493 0.7061,-0.16476 1.525252,0.0968 1.275657,0.40732 1.681308,1.34548 0.407014,0.9339 -0.05343,2.37595 -0.25747,0.80635 -0.634728,1.32528 -0.371629,0.51603 -0.839992,0.7755 -0.468364,0.25947 -1.014855,0.27773 -0.542224,0.0196 -1.143789,-0.17246 z m -0.183534,-3.41539 q -0.411407,1.28846 -0.305842,2.01797 0.111194,0.72661 0.74689,0.92959 0.328514,0.10489 0.614753,0.004 0.287602,-0.10562 0.529202,-0.37638 0.247229,-0.27367 0.44591,-0.68977 0.202948,-0.41474 0.369146,-0.93524 0.271092,-0.84902 0.317112,-1.46431 0.05165,-0.6182 -0.128768,-0.9955 -0.174787,-0.38021 -0.597162,-0.51507 -0.61863,-0.19753 -1.110901,0.29878 -0.486643,0.49341 -0.88034,1.7264 z"
             style="font-style:normal;font-variant:normal;font-weight:bold;font-stretch:normal;font-size:9.17222214px;font-family:Cambria;-inkscape-font-specification:'Cambria, Bold';font-variant-ligatures:normal;font-variant-caps:normal;font-variant-numeric:normal;font-feature-settings:normal;text-align:start;writing-mode:lr-tb;text-anchor:start;fill:#aa4400;stroke:#aa4400;stroke-width:0.05344583;stroke-miterlimit:4;stroke-dasharray:none;stroke-opacity:1"
             id="path1136" />
          <path
             inkscape:connector-curvature="0"
             d="m 74.859206,159.0738 q -0.08804,0.32415 -0.08986,0.46752 -0.0018,0.14338 0.0635,0.24465 0.06963,0.10245 0.280292,0.21536 l -0.07748,0.28525 -2.152378,-0.58459 0.07748,-0.28526 q 0.21957,-0.005 0.317323,-0.0577 0.102075,-0.0512 0.173042,-0.17576 0.06979,-0.12027 0.159008,-0.44875 l 1.027153,-3.78179 q 0.08335,-0.30686 0.109918,-0.43887 0.0309,-0.13083 0.02961,-0.22864 0.003,-0.0966 -0.02492,-0.16456 -0.02679,-0.0722 -0.101488,-0.13894 -0.07038,-0.0655 -0.225227,-0.14471 l 0.07982,-0.2939 1.206597,0.29059 0.531611,0.14439 -0.235044,0.60909 0.04834,0.0271 q 0.469128,-0.25778 0.831219,-0.3265 0.367587,-0.0719 0.709029,0.0209 0.769324,0.20895 1.006076,0.85801 0.237925,0.64473 -0.05555,1.72524 -0.203082,0.74771 -0.569495,1.19117 -0.360918,0.44032 -0.87967,0.57324 -0.517578,0.12859 -1.174528,-0.0498 -0.445171,-0.12091 -0.842532,-0.3495 z m 0.595161,-2.19128 q -0.144388,0.53161 -0.03212,0.83592 0.117762,0.30115 0.502424,0.40563 0.397628,0.108 0.717779,-0.25057 0.325647,-0.36172 0.535773,-1.13537 0.233604,-0.86008 0.156128,-1.32665 -0.07315,-0.46539 -0.470783,-0.57339 -0.194492,-0.0528 -0.407339,-0.004 -0.208526,0.0501 -0.375698,0.20426 -0.165998,0.14983 -0.228215,0.3789 z"
             style="font-style:normal;font-variant:normal;font-weight:bold;font-stretch:normal;font-size:9.17222214px;font-family:Cambria;-inkscape-font-specification:'Cambria, Bold';font-variant-ligatures:normal;font-variant-caps:normal;font-variant-numeric:normal;font-feature-settings:normal;text-align:start;writing-mode:lr-tb;text-anchor:start;fill:#aa4400;stroke:#aa4400;stroke-width:0.05344583;stroke-miterlimit:4;stroke-dasharray:none;stroke-opacity:1"
             id="path1138" />
          <path
             inkscape:connector-curvature="0"
             d="m 82.868169,159.57372 q -0.567629,0.34704 -1.052658,0.42414 -0.485029,0.0771 -1.046895,-0.0755 -1.007036,-0.27351 -1.367953,-0.96093 -0.355422,-0.69057 -0.06078,-1.7754 0.19017,-0.70017 0.586838,-1.13542 0.402163,-0.43839 0.952343,-0.56741 0.551354,-0.13335 1.186695,0.0392 0.393306,0.10682 0.662553,0.27741 0.273569,0.17176 0.440742,0.39352 0.168346,0.21743 0.244435,0.48406 0.09028,0.3169 0.07732,0.68929 -0.01099,0.38221 -0.145189,0.89338 l -2.740175,-0.74424 q -0.208152,0.78346 -0.03682,1.22911 0.176831,0.4425 0.738696,0.59511 0.328475,0.0892 0.624989,0.0398 0.297687,-0.0537 0.689072,-0.28158 z m -0.675093,-2.12789 q 0.162317,-0.66597 0.09476,-1.03238 -0.06755,-0.36641 -0.413315,-0.46032 -0.332798,-0.0904 -0.623175,0.19273 -0.286055,0.28429 -0.497515,0.90907 z"
             style="font-style:normal;font-variant:normal;font-weight:bold;font-stretch:normal;font-size:9.17222214px;font-family:Cambria;-inkscape-font-specification:'Cambria, Bold';font-variant-ligatures:normal;font-variant-caps:normal;font-variant-numeric:normal;font-feature-settings:normal;text-align:start;writing-mode:lr-tb;text-anchor:start;fill:#aa4400;stroke:#aa4400;stroke-width:0.05344583;stroke-miterlimit:4;stroke-dasharray:none;stroke-opacity:1"
             id="path1140" />
          <path
             inkscape:connector-curvature="0"
             d="m 88.265916,161.22801 -2.152963,-0.28794 0.03918,-0.29298 q 0.210729,-0.0215 0.303101,-0.10406 0.09297,-0.087 0.140973,-0.24322 0.05304,-0.16009 0.109442,-0.5818 l 0.158517,-1.18524 q 0.04215,-0.31518 0.05555,-0.51672 0.01399,-0.20598 1.37e-4,-0.33887 -0.0094,-0.13229 -0.05141,-0.22376 -0.03696,-0.0953 -0.09198,-0.1569 -0.05443,-0.066 -0.130771,-0.10334 -0.07634,-0.0373 -0.200636,-0.0539 -0.168686,-0.0226 -0.364938,0.0596 -0.195658,0.0778 -0.344888,0.24757 -0.148636,0.16538 -0.17654,0.37402 l -0.228574,1.70905 q -0.0564,0.42172 -0.05173,0.58952 0.0047,0.16781 0.07151,0.27616 0.07188,0.1045 0.273982,0.18124 l -0.03918,0.29298 -2.144084,-0.28676 0.03918,-0.29298 q 0.220795,-0.0292 0.313166,-0.11175 0.09681,-0.0819 0.144818,-0.23818 0.05245,-0.15565 0.108849,-0.57737 l 0.24401,-1.82447 q 0.04393,-0.32849 0.0514,-0.48564 0.0125,-0.161 -0.01943,-0.26015 -0.02689,-0.10301 -0.107955,-0.17259 -0.07603,-0.0734 -0.283171,-0.14632 l 0.04037,-0.30185 1.221063,0.12716 0.559326,0.0748 -0.152079,0.63033 0.05149,0.0204 q 0.307877,-0.20734 0.53492,-0.31705 0.227636,-0.11415 0.464716,-0.16377 0.242114,-0.0535 0.495142,-0.0196 0.364006,0.0487 0.589469,0.18728 0.226056,0.13416 0.34583,0.35351 0.124213,0.21994 0.14777,0.5168 0.028,0.29744 -0.02306,0.67921 l -0.217294,1.62471 q -0.02612,0.19532 -0.04484,0.36904 -0.01368,0.16987 -7.03e-4,0.27553 0.01298,0.10566 0.04846,0.17819 0.04052,0.0687 0.118924,0.12434 0.07841,0.0557 0.194106,0.10278 z"
             style="font-style:normal;font-variant:normal;font-weight:bold;font-stretch:normal;font-size:9.17222214px;font-family:Cambria;-inkscape-font-specification:'Cambria, Bold';font-variant-ligatures:normal;font-variant-caps:normal;font-variant-numeric:normal;font-feature-settings:normal;text-align:start;writing-mode:lr-tb;text-anchor:start;fill:#aa4400;stroke:#aa4400;stroke-width:0.05344583;stroke-miterlimit:4;stroke-dasharray:none;stroke-opacity:1"
             id="path1142" />
          <path
             inkscape:connector-curvature="0"
             d="m 95.180715,158.728 q 0.601139,0.26572 0.884113,0.67602 0.287924,0.40634 0.229524,0.92708 -0.04991,0.44507 -0.238176,0.75745 -0.183811,0.31288 -0.51487,0.49208 -0.326109,0.17524 -0.751007,0.22673 -0.420448,0.052 -1.056901,-0.0194 l -2.741645,-0.30748 0.03294,-0.29374 q 0.169668,-0.026 0.268624,-0.0645 0.103905,-0.0424 0.158395,-0.12645 0.05944,-0.088 0.08827,-0.22445 0.02933,-0.14092 0.05328,-0.35456 l 0.430266,-3.83652 q 0.02346,-0.20918 0.02608,-0.3531 0.0071,-0.14343 -0.0319,-0.23793 -0.03452,-0.094 -0.12645,-0.1584 -0.08698,-0.0683 -0.251112,-0.13181 l 0.03294,-0.29375 2.915222,0.32694 q 0.498481,0.0559 0.808992,0.1403 0.410881,0.11368 0.699512,0.3128 0.259473,0.17782 0.3848,0.46679 0.125327,0.28896 0.0834,0.66282 -0.112808,1.00587 -1.379808,1.37303 z m -1.358219,-0.38667 q 0.445072,0.0499 0.713239,-0.0507 0.268166,-0.10062 0.423692,-0.32203 0.160476,-0.22537 0.207396,-0.64374 0.04143,-0.36941 -0.07703,-0.59901 -0.117965,-0.23406 -0.370075,-0.35698 -0.252111,-0.12291 -0.643774,-0.16684 -0.311551,-0.0349 -0.607794,-0.0456 l -0.237595,2.11855 z m -0.914894,2.81323 q 0.261095,0.0428 0.6038,0.0812 0.422819,0.0474 0.705793,-0.0245 0.287925,-0.0759 0.4682,-0.31704 0.180774,-0.24562 0.231687,-0.6996 0.03594,-0.32045 -0.01872,-0.55642 -0.05416,-0.24042 -0.198909,-0.39636 -0.144254,-0.1604 -0.359802,-0.24766 -0.215049,-0.0917 -0.548853,-0.12916 l -0.61865,-0.0694 z"
             style="font-style:normal;font-variant:normal;font-weight:bold;font-stretch:normal;font-size:9.17222214px;font-family:Cambria;-inkscape-font-specification:'Cambria, Bold';font-variant-ligatures:normal;font-variant-caps:normal;font-variant-numeric:normal;font-feature-settings:normal;text-align:start;writing-mode:lr-tb;text-anchor:start;fill:#aa4400;stroke:#aa4400;stroke-width:0.05344583;stroke-miterlimit:4;stroke-dasharray:none;stroke-opacity:1"
             id="path1144" />
          <path
             inkscape:connector-curvature="0"
             d="m 98.977308,158.5499 0.05636,0.0198 q 0.36783,-0.34632 0.729503,-0.47701 0.361679,-0.1307 0.762239,-0.0858 0.2715,0.0304 0.5632,0.12175 l -0.13776,1.2284 -0.80558,-0.0904 q -0.0467,-0.26663 -0.155861,-0.41858 -0.104696,-0.15144 -0.309429,-0.17441 -0.09792,-0.011 -0.225074,0.0379 -0.122207,0.0449 -0.237053,0.14467 -0.109895,0.0958 -0.16738,0.20656 -0.05254,0.10677 -0.07887,0.221 -0.02633,0.11422 -0.05229,0.34565 l -0.159228,1.41979 q -0.04742,0.42281 -0.03523,0.59544 0.01219,0.17262 0.09467,0.28101 0.08298,0.10395 0.301026,0.16897 l -0.03294,0.29374 -2.194206,-0.24608 0.03294,-0.29374 q 0.220124,-0.0339 0.310719,-0.11838 0.09505,-0.084 0.13972,-0.24122 0.04912,-0.15673 0.09654,-0.57955 l 0.20515,-1.82924 q 0.03694,-0.32936 0.04106,-0.48663 0.0091,-0.16123 -0.02496,-0.25968 -0.02908,-0.10241 -0.1116,-0.17025 -0.07758,-0.0718 -0.286219,-0.14026 l 0.03394,-0.30265 1.223491,0.10116 0.560791,0.0629 z"
             style="font-style:normal;font-variant:normal;font-weight:bold;font-stretch:normal;font-size:9.17222214px;font-family:Cambria;-inkscape-font-specification:'Cambria, Bold';font-variant-ligatures:normal;font-variant-caps:normal;font-variant-numeric:normal;font-feature-settings:normal;text-align:start;writing-mode:lr-tb;text-anchor:start;fill:#aa4400;stroke:#aa4400;stroke-width:0.05344583;stroke-miterlimit:4;stroke-dasharray:none;stroke-opacity:1"
             id="path1146" />
          <path
             inkscape:connector-curvature="0"
             d="m 103.60206,162.27441 -0.0657,-0.0263 q -0.38763,0.33613 -0.74582,0.47659 -0.35372,0.14072 -0.74269,0.11786 -0.38449,-0.0226 -0.66249,-0.17801 -0.27326,-0.15962 -0.40609,-0.41866 -0.12835,-0.25878 -0.10917,-0.58515 0.0386,-0.65723 0.7045,-0.99495 0.67061,-0.34193 1.99084,-0.36305 l 0.025,-0.42474 q 0.0244,-0.41579 -0.0563,-0.64485 -0.0805,-0.23354 -0.22277,-0.33163 -0.14203,-0.10256 -0.34769,-0.11464 -0.20566,-0.0121 -0.36188,0.0505 -0.15174,0.0629 -0.28428,0.25696 -0.13227,0.18962 -0.21115,0.53941 l -0.845,-0.0497 0.0478,-0.81371 q 0.42209,-0.15914 0.7006,-0.24147 0.2785,-0.0823 0.54596,-0.12943 0.2722,-0.0513 0.48391,-0.0658 0.21171,-0.0145 0.42184,-0.002 0.54098,0.0318 0.85448,0.19377 0.31797,0.16225 0.46001,0.49362 0.14203,0.33136 0.10867,0.89916 l -0.10247,1.74366 q -0.0173,0.29508 -0.0134,0.45682 0.004,0.16174 0.026,0.24379 0.0268,0.0779 0.0687,0.12966 0.0421,0.0473 0.10283,0.0823 0.0655,0.0308 0.2417,0.086 l -0.0173,0.29508 -1.66318,-0.0977 z m -0.0579,-1.53325 q -0.69404,-0.0228 -1.04354,0.19889 -0.34504,0.22199 -0.37236,0.68696 -0.0163,0.2772 0.12705,0.43367 0.1436,0.152 0.41186,0.16776 0.20566,0.0121 0.39527,-0.0844 0.18988,-0.101 0.30795,-0.278 0.11808,-0.177 0.13016,-0.38267 z"
             style="font-style:normal;font-variant:normal;font-weight:bold;font-stretch:normal;font-size:9.17222214px;font-family:Cambria;-inkscape-font-specification:'Cambria, Bold';font-variant-ligatures:normal;font-variant-caps:normal;font-variant-numeric:normal;font-feature-settings:normal;text-align:start;writing-mode:lr-tb;text-anchor:start;fill:#aa4400;stroke:#aa4400;stroke-width:0.05344583;stroke-miterlimit:4;stroke-dasharray:none;stroke-opacity:1"
             id="path1148" />
          <path
             inkscape:connector-curvature="0"
             d="m 107.20353,156.51292 0.0554,1.09586 -1.22558,0.0619 -0.0553,-1.09587 z m -1.40038,6.01246 q 0.21623,-0.0692 0.292,-0.16721 0.0802,-0.0982 0.099,-0.26061 0.0232,-0.1626 0.002,-0.58753 l -0.10505,-2.07991 q -0.0111,-0.21917 -0.0402,-0.35223 -0.0247,-0.13329 -0.0869,-0.21086 -0.0577,-0.0778 -0.15817,-0.11309 -0.0962,-0.04 -0.24986,-0.0636 l -0.0154,-0.30416 1.22825,-0.0979 0.55911,-0.0282 0.16062,3.18025 q 0.0127,0.25048 0.0241,0.38892 0.0157,0.13373 0.033,0.2091 0.017,0.0709 0.0423,0.1279 0.0298,0.0568 0.0725,0.10396 0.0427,0.0472 0.12082,0.0836 0.0781,0.0364 0.20489,0.0614 l 0.0149,0.29521 -2.18278,0.11025 z"
             style="font-style:normal;font-variant:normal;font-weight:bold;font-stretch:normal;font-size:9.17222214px;font-family:Cambria;-inkscape-font-specification:'Cambria, Bold';font-variant-ligatures:normal;font-variant-caps:normal;font-variant-numeric:normal;font-feature-settings:normal;text-align:start;writing-mode:lr-tb;text-anchor:start;fill:#aa4400;stroke:#aa4400;stroke-width:0.05344583;stroke-miterlimit:4;stroke-dasharray:none;stroke-opacity:1"
             id="path1150" />
          <path
             inkscape:connector-curvature="0"
             d="m 113.56516,162.42933 -2.16937,0.10957 -0.0149,-0.29522 q 0.20327,-0.0596 0.27904,-0.15759 0.0755,-0.10247 0.0943,-0.26485 0.0229,-0.16708 10e-4,-0.59201 l -0.0603,-1.19427 q -0.016,-0.31757 -0.0396,-0.51818 -0.0238,-0.20507 -0.0617,-0.33321 -0.0334,-0.12836 -0.0914,-0.21063 -0.0537,-0.087 -0.11905,-0.13749 -0.0656,-0.055 -0.14743,-0.0778 -0.0819,-0.0228 -0.20711,-0.0164 -0.16997,0.009 -0.34794,0.1252 -0.17819,0.11214 -0.29395,0.30632 -0.11598,0.18972 -0.10536,0.39995 l 0.087,1.72207 q 0.0215,0.42493 0.0566,0.58907 0.0352,0.16415 0.12068,0.25848 0.0897,0.0896 0.30244,0.12823 l 0.0149,0.29521 -2.16042,0.10911 -0.0149,-0.29521 q 0.21177,-0.069 0.28753,-0.16699 0.0802,-0.0982 0.0989,-0.2606 0.0232,-0.16261 0.002,-0.58754 l -0.0928,-1.83837 q -0.0167,-0.331 -0.038,-0.48687 -0.0171,-0.16057 -0.0666,-0.25225 -0.0452,-0.0964 -0.13763,-0.15 -0.0881,-0.0583 -0.3051,-0.0922 l -0.0154,-0.30416 1.22378,-0.0977 0.56359,-0.0285 -0.0346,0.64749 0.0544,0.0107 q 0.26489,-0.26002 0.46812,-0.40929 0.20299,-0.15376 0.42705,-0.24579 0.2283,-0.0967 0.48325,-0.10961 0.36678,-0.0185 0.61374,0.0766 0.24674,0.0907 0.40451,0.2845 0.16224,0.1936 0.23955,0.48118 0.0818,0.28735 0.1012,0.67202 l 0.0827,1.63709 q 0.01,0.19681 0.0232,0.37103 0.0175,0.16952 0.0496,0.27104 0.032,0.10152 0.0802,0.16636 0.0524,0.0601 0.13961,0.10057 0.0872,0.0404 0.2096,0.0657 z"
             style="font-style:normal;font-variant:normal;font-weight:bold;font-stretch:normal;font-size:9.17222214px;font-family:Cambria;-inkscape-font-specification:'Cambria, Bold';font-variant-ligatures:normal;font-variant-caps:normal;font-variant-numeric:normal;font-feature-settings:normal;text-align:start;writing-mode:lr-tb;text-anchor:start;fill:#aa4400;stroke:#aa4400;stroke-width:0.05344583;stroke-miterlimit:4;stroke-dasharray:none;stroke-opacity:1"
             id="path1152" />
          <path
             inkscape:connector-curvature="0"
             d="m 116.7811,160.75569 q 0.1387,0.52663 0.41146,0.77743 0.27701,0.2461 0.78245,0.22057 0.2639,-0.0133 0.46961,-0.1134 0.20571,-0.10008 0.32101,-0.30321 0.11955,-0.20784 0.10441,-0.50752 -0.014,-0.27732 -0.12705,-0.47341 -0.11326,-0.20056 -0.35065,-0.37243 -0.23738,-0.17186 -0.6548,-0.35706 -0.3577,-0.15682 -0.64898,-0.33046 -0.29129,-0.17363 -0.50386,-0.38711 -0.20833,-0.21818 -0.33371,-0.4809 -0.12091,-0.26296 -0.13785,-0.59843 -0.0278,-0.55017 0.22563,-0.94862 0.25343,-0.39845 0.75787,-0.62124 0.50869,-0.22748 1.18858,-0.26182 0.39809,-0.0201 0.76266,0.006 0.36434,0.022 0.83494,0.10582 l 0.0655,1.29714 -0.61279,0.0309 q -0.10283,-0.34906 -0.24741,-0.54804 -0.14033,-0.20368 -0.34211,-0.29214 -0.20178,-0.0885 -0.50146,-0.0733 -0.25496,0.0129 -0.45172,0.1125 -0.19677,0.0996 -0.30403,0.28441 -0.10748,0.18032 -0.0948,0.43081 0.0131,0.25943 0.12122,0.44679 0.11236,0.18267 0.35869,0.35409 0.2461,0.16694 0.70962,0.37671 0.56462,0.25848 0.89173,0.51999 0.33136,0.25681 0.49546,0.57588 0.16834,0.31437 0.19003,0.74377 0.0278,0.55017 -0.20661,0.97008 -0.23463,0.41544 -0.71111,0.65924 -0.4767,0.23932 -1.11633,0.27163 -0.45624,0.023 -0.95544,-0.006 -0.49451,-0.0243 -0.93335,-0.10084 l -0.0696,-1.37766 z"
             style="font-style:normal;font-variant:normal;font-weight:bold;font-stretch:normal;font-size:9.17222214px;font-family:Cambria;-inkscape-font-specification:'Cambria, Bold';font-variant-ligatures:normal;font-variant-caps:normal;font-variant-numeric:normal;font-feature-settings:normal;text-align:start;writing-mode:lr-tb;text-anchor:start;fill:#aa4400;stroke:#aa4400;stroke-width:0.05344583;stroke-miterlimit:4;stroke-dasharray:none;stroke-opacity:1"
             id="path1154" />
          <path
             inkscape:connector-curvature="0"
             d="m 123.19358,161.88041 q -0.65045,0.10172 -1.1592,-0.0499 -0.50502,-0.15674 -0.8487,-0.61523 -0.34438,-0.46291 -0.46547,-1.23726 -0.0927,-0.59293 0.003,-1.05217 0.0959,-0.45924 0.34366,-0.7881 0.24775,-0.32886 0.62966,-0.52457 0.38563,-0.20083 0.85909,-0.27487 1.07081,-0.16746 1.70364,0.31381 0.63214,0.47684 0.80236,1.56535 0.1204,0.76992 -0.0679,1.33427 -0.18895,0.55991 -0.64952,0.89032 -0.46056,0.33041 -1.15084,0.43836 z m -1.14344,-2.21011 q 0.1467,0.93807 0.42801,1.37458 0.28505,0.4314 0.70984,0.36497 0.23451,-0.0367 0.3707,-0.18037 0.14061,-0.14438 0.19824,-0.38458 0.0621,-0.24089 0.0528,-0.56128 -0.01,-0.32482 -0.0716,-0.71863 -0.14877,-0.95134 -0.43452,-1.38716 -0.282,-0.44093 -0.69352,-0.37658 -0.30088,0.047 -0.45255,0.26569 -0.15166,0.21864 -0.17623,0.61232 -0.0246,0.39369 0.0689,0.99104 z"
             style="font-style:normal;font-variant:normal;font-weight:bold;font-stretch:normal;font-size:9.17222214px;font-family:Cambria;-inkscape-font-specification:'Cambria, Bold';font-variant-ligatures:normal;font-variant-caps:normal;font-variant-numeric:normal;font-feature-settings:normal;text-align:start;writing-mode:lr-tb;text-anchor:start;fill:#aa4400;stroke:#aa4400;stroke-width:0.05344583;stroke-miterlimit:4;stroke-dasharray:none;stroke-opacity:1"
             id="path1156" />
          <path
             inkscape:connector-curvature="0"
             d="m 129.28333,159.36654 0.42275,0.33717 q -0.34168,0.51064 -0.70653,0.77904 -0.36138,0.2631 -0.83485,0.36203 -0.95131,0.19878 -1.56742,-0.25355 -0.61702,-0.45671 -0.83962,-1.52201 -0.15023,-0.71897 0.0126,-1.29745 0.16626,-0.58378 0.62331,-0.95838 0.45612,-0.37898 1.1181,-0.51731 0.3551,-0.0742 0.7168,-0.0949 0.36518,-0.026 0.67284,0.001 l 0.22077,1.05653 -0.86802,0.18138 q -0.15187,-0.39835 -0.32278,-0.55938 -0.17091,-0.16103 -0.41641,-0.10973 -0.1622,0.0339 -0.29385,0.14834 -0.12818,0.10914 -0.20003,0.33461 -0.0684,0.22018 -0.0636,0.57149 0.004,0.34692 0.11104,0.85984 0.10718,0.51292 0.27783,0.84787 0.16973,0.33056 0.42485,0.47856 0.2542,0.14363 0.60491,0.0703 0.25427,-0.0531 0.45495,-0.20944 0.20507,-0.15724 0.4524,-0.50632 z"
             style="font-style:normal;font-variant:normal;font-weight:bold;font-stretch:normal;font-size:9.17222214px;font-family:Cambria;-inkscape-font-specification:'Cambria, Bold';font-variant-ligatures:normal;font-variant-caps:normal;font-variant-numeric:normal;font-feature-settings:normal;text-align:start;writing-mode:lr-tb;text-anchor:start;fill:#aa4400;stroke:#aa4400;stroke-width:0.05344583;stroke-miterlimit:4;stroke-dasharray:none;stroke-opacity:1"
             id="path1158" />
          <path
             inkscape:connector-curvature="0"
             d="m 130.77316,153.86221 0.22443,1.07406 -1.2012,0.251 -0.22443,-1.07407 z m -0.45213,6.15682 q 0.2029,-0.10188 0.26257,-0.21043 0.0641,-0.10947 0.0574,-0.27279 -0.002,-0.16423 -0.0893,-0.58071 l -0.42596,-2.03853 q -0.0449,-0.21481 -0.0943,-0.34175 -0.045,-0.12785 -0.11849,-0.19486 -0.0691,-0.0679 -0.17379,-0.0872 -0.10122,-0.0246 -0.25669,-0.0241 l -0.0623,-0.29811 1.19825,-0.28698 0.548,-0.11451 0.65131,3.11698 q 0.0513,0.2455 0.0841,0.38049 0.0362,0.12968 0.065,0.20146 0.0278,0.0674 0.0616,0.11981 0.0382,0.0515 0.0877,0.0915 0.0495,0.04 0.1323,0.0639 0.0828,0.0239 0.21194,0.0289 l 0.0605,0.28934 -2.13936,0.44703 z"
             style="font-style:normal;font-variant:normal;font-weight:bold;font-stretch:normal;font-size:9.17222214px;font-family:Cambria;-inkscape-font-specification:'Cambria, Bold';font-variant-ligatures:normal;font-variant-caps:normal;font-variant-numeric:normal;font-feature-settings:normal;text-align:start;writing-mode:lr-tb;text-anchor:start;fill:#aa4400;stroke:#aa4400;stroke-width:0.05344583;stroke-miterlimit:4;stroke-dasharray:none;stroke-opacity:1"
             id="path1160" />
          <path
             inkscape:connector-curvature="0"
             d="m 136.94533,157.98247 q -0.32158,0.58243 -0.70493,0.88941 -0.38336,0.30699 -0.94714,0.45236 -1.01046,0.26056 -1.66422,-0.15825 -0.65054,-0.42427 -0.93123,-1.51279 -0.18116,-0.70256 -0.0518,-1.27706 0.13259,-0.57995 0.54687,-0.96429 0.41317,-0.38867 1.05067,-0.55306 0.39465,-0.10176 0.71303,-0.0867 0.32272,0.0139 0.57772,0.12391 0.25388,0.10567 0.45192,0.29973 0.23525,0.23072 0.40823,0.56075 0.17955,0.33759 0.31585,0.84821 l -2.74951,0.70899 q 0.20674,0.78383 0.57613,1.08634 0.37261,0.29706 0.93639,0.15168 0.32959,-0.085 0.56282,-0.27463 0.23212,-0.19398 0.45951,-0.58563 z m -1.63949,-1.51517 q -0.18844,-0.65905 -0.42844,-0.94405 -0.23999,-0.285 -0.58693,-0.19554 -0.33394,0.0861 -0.4462,0.47582 -0.10793,0.38859 0.0174,1.03616 z"
             style="font-style:normal;font-variant:normal;font-weight:bold;font-stretch:normal;font-size:9.17222214px;font-family:Cambria;-inkscape-font-specification:'Cambria, Bold';font-variant-ligatures:normal;font-variant-caps:normal;font-variant-numeric:normal;font-feature-settings:normal;text-align:start;writing-mode:lr-tb;text-anchor:start;fill:#aa4400;stroke:#aa4400;stroke-width:0.05344583;stroke-miterlimit:4;stroke-dasharray:none;stroke-opacity:1"
             id="path1162" />
          <path
             inkscape:connector-curvature="0"
             d="m 140.70114,157.08714 q -0.28267,0.43389 -0.55251,0.65848 -0.27111,0.2203 -0.61468,0.32193 -0.63992,0.18927 -1.05934,-0.0603 -0.41641,-0.25514 -0.62346,-0.95518 l -0.71008,-2.40074 -0.53684,0.15878 -0.0876,-0.29633 q 0.24928,-0.12044 0.34842,-0.24317 0.0991,-0.12273 0.12594,-0.28478 0.0255,-0.16634 -0.004,-0.40969 -0.0257,-0.24462 -0.10707,-0.59884 l 1.02644,-0.30359 0.31757,1.07367 1.22399,-0.36202 0.15878,0.53684 -1.22399,0.36202 0.57289,1.93691 q 0.14354,0.48531 0.25508,0.70452 0.11584,0.21794 0.25623,0.29785 0.13912,0.0756 0.29803,0.0286 0.12025,-0.0356 0.20838,-0.085 0.0881,-0.0494 0.17469,-0.13574 0.0909,-0.0876 0.17633,-0.22496 z"
             style="font-style:normal;font-variant:normal;font-weight:bold;font-stretch:normal;font-size:9.17222214px;font-family:Cambria;-inkscape-font-specification:'Cambria, Bold';font-variant-ligatures:normal;font-variant-caps:normal;font-variant-numeric:normal;font-feature-settings:normal;text-align:start;writing-mode:lr-tb;text-anchor:start;fill:#aa4400;stroke:#aa4400;stroke-width:0.05344583;stroke-miterlimit:4;stroke-dasharray:none;stroke-opacity:1"
             id="path1164" />
          <path
             inkscape:connector-curvature="0"
             d="m 143.35013,157.07425 q -0.095,0.7053 -0.2399,1.13114 -0.13936,0.42887 -0.37503,0.69006 -0.23137,0.25992 -0.65654,0.38568 -0.32211,0.0953 -0.6254,0.0962 l -0.29089,-0.98348 0.48101,-0.14227 q 0.11553,0.18533 0.21873,0.23421 0.10876,0.0519 0.25907,0.007 0.1632,-0.0483 0.26537,-0.17657 0.10646,-0.12956 0.19598,-0.42693 0.0951,-0.29434 0.19078,-0.85507 l -0.2448,0.0724 -2.07488,-2.89379 q -0.22061,-0.30371 -0.33045,-0.40666 -0.10683,-0.10852 -0.21607,-0.14627 -0.10622,-0.0433 -0.24268,-0.031 l -0.0838,-0.28345 2.14306,-0.63386 0.0838,0.28345 q -0.19042,0.0984 -0.26204,0.20361 -0.0716,0.10525 -0.0259,0.25986 0.061,0.20614 0.27045,0.50381 l 1.17354,1.69387 0.19635,-1.84685 q 0.0249,-0.23155 0.0221,-0.39886 -0.004,-0.17161 -0.0485,-0.32192 -0.0533,-0.18038 -0.19072,-0.26585 -0.13864,-0.0898 -0.3365,-0.0639 l -0.0838,-0.28345 1.67065,-0.49413 0.0851,0.28774 q -0.11311,0.0755 -0.1739,0.15419 -0.0565,0.0774 -0.0985,0.18794 -0.0377,0.10924 -0.0789,0.31757 -0.0424,0.20402 -0.0989,0.61305 z"
             style="font-style:normal;font-variant:normal;font-weight:bold;font-stretch:normal;font-size:9.17222214px;font-family:Cambria;-inkscape-font-specification:'Cambria, Bold';font-variant-ligatures:normal;font-variant-caps:normal;font-variant-numeric:normal;font-feature-settings:normal;text-align:start;writing-mode:lr-tb;text-anchor:start;fill:#aa4400;stroke:#aa4400;stroke-width:0.05344583;stroke-miterlimit:4;stroke-dasharray:none;stroke-opacity:1"
             id="path1166" />
        </g>
        <path
           style="fill:#ffffff;fill-opacity:1;stroke:none;stroke-width:0.0165244;stroke-opacity:1"
           d="m 103.19575,84.424649 c 0.0343,-0.01845 0.0659,-0.04555 0.0703,-0.0602 0.006,-0.01941 0.0145,-0.02113 0.0321,-0.0063 0.0881,0.07435 0.17405,0.06678 0.19936,-0.01756 0.0119,-0.03974 0.02,-0.04318 0.0798,-0.03366 0.0957,0.01528 0.12474,-0.002 0.14257,-0.0847 0.0138,-0.06429 0.0183,-0.06912 0.0612,-0.06588 0.0557,0.0042 0.13009,-0.04448 0.14526,-0.09502 0.006,-0.02016 0.0223,-0.03945 0.0362,-0.04287 0.0139,-0.0034 0.0388,-0.02012 0.0555,-0.03712 0.025,-0.02546 0.0278,-0.03933 0.016,-0.0789 -0.0137,-0.04623 -0.0122,-0.04917 0.0413,-0.07947 0.0358,-0.02024 0.0576,-0.04534 0.0615,-0.07037 0.003,-0.0214 3.1e-4,-0.03973 -0.007,-0.04075 -0.007,-0.0011 -0.1225,-0.02964 -0.25695,-0.06362 -0.13444,-0.03397 -0.27541,-0.06664 -0.31327,-0.07258 -0.067,-0.01052 -0.0692,-0.01272 -0.0822,-0.08392 -0.0147,-0.08101 -0.003,-0.0904 0.0838,-0.06462 0.0539,0.01612 0.15489,-0.01 0.1798,-0.04649 0.0126,-0.01841 0.0406,-0.0258 0.0813,-0.02139 0.0803,0.0087 0.12904,-0.01514 0.14591,-0.07138 0.0111,-0.03716 0.0203,-0.04301 0.0521,-0.03346 0.076,0.0228 0.12318,0.0081 0.15174,-0.04713 0.017,-0.03285 0.0395,-0.05271 0.0601,-0.05304 0.051,-7.86e-4 0.16169,-0.07733 0.17475,-0.120835 0.007,-0.02213 0.0209,-0.03625 0.033,-0.03263 0.0353,0.0106 0.0972,-0.03705 0.11195,-0.08625 0.0104,-0.03482 0.0234,-0.04579 0.0524,-0.04447 0.0421,0.0019 0.10047,-0.02418 0.10765,-0.04811 0.003,-0.0083 -0.0128,-0.02848 -0.034,-0.04486 l -0.0385,-0.02976 0.0549,-0.01046 c 0.0302,-0.0058 0.0635,-0.01841 0.0739,-0.02812 0.0105,-0.0097 0.0667,-0.04757 0.12502,-0.08415 0.16118,-0.101134 0.53389,-0.465536 0.65556,-0.640925 0.0842,-0.121336 0.037,-0.106726 -0.0913,0.02823 -0.16712,0.175921 -0.24283,0.233125 -0.44445,0.335814 -0.19876,0.101228 -0.40817,0.178819 -0.57668,0.213674 -0.15086,0.0312 -0.33987,0.08874 -0.74998,0.228294 -0.1638,0.05574 -0.31817,0.0999 -0.34305,0.09814 -0.0578,-0.0041 -0.1182,-0.06202 -0.14706,-0.141062 -0.0123,-0.03347 -0.0398,-0.09627 -0.0613,-0.139563 -0.0531,-0.106949 -0.0952,-0.117079 -0.23228,-0.05577 -0.0596,0.02664 -0.11,0.0542 -0.11211,0.06125 -0.002,0.007 0.0166,0.01894 0.0415,0.02643 0.0402,0.01205 0.0445,0.02081 0.0374,0.07592 -0.015,0.116926 -0.0357,0.163663 -0.0761,0.171846 -0.0265,0.0054 -0.2312,-0.05223 -0.68011,-0.191378 l -0.64219,-0.199059 -0.12617,-0.08456 c -0.15265,-0.102316 -0.28024,-0.211829 -0.39781,-0.341484 -0.0483,-0.05333 -0.094,-0.09367 -0.10145,-0.08967 -0.0264,0.0142 0.0942,0.20994 0.17649,0.286404 0.0459,0.04269 0.1697,0.137313 0.27505,0.210267 0.10536,0.07295 0.21809,0.158138 0.25052,0.189295 0.0324,0.03116 0.0845,0.07531 0.11574,0.09812 0.0312,0.02281 0.0622,0.05792 0.0689,0.07804 0.0143,0.04319 0.10009,0.10715 0.14594,0.10879 0.0211,7.86e-4 0.0367,0.01648 0.0454,0.04561 0.008,0.02767 0.0345,0.05519 0.0695,0.07288 0.031,0.01563 0.0701,0.05201 0.0869,0.08084 0.0314,0.05365 0.0846,0.08141 0.29727,0.154811 0.0482,0.01665 0.0991,0.04132 0.11294,0.05482 0.0139,0.0135 0.0622,0.03078 0.10733,0.03842 0.0451,0.0076 0.11689,0.02431 0.15942,0.03707 0.0756,0.02269 0.0778,0.02512 0.0965,0.109432 l 0.0191,0.08623 -0.2298,0.127166 c -0.30173,0.16697 -0.32104,0.19589 -0.17644,0.264254 0.0391,0.01847 0.0617,0.03873 0.0578,0.05175 -0.009,0.02905 0.0347,0.06942 0.0935,0.08709 0.0282,0.0085 0.0583,0.03268 0.0718,0.05786 0.0173,0.03209 0.036,0.04449 0.0723,0.04791 0.0358,0.0034 0.0549,0.01574 0.0713,0.04625 0.0172,0.03187 0.0419,0.04704 0.1053,0.06471 0.0456,0.0127 0.10797,0.03578 0.13862,0.05129 0.0488,0.02471 0.0635,0.02406 0.11805,-0.0054 z"
           id="path1227"
           inkscape:connector-curvature="0"
           sodipodi:nodetypes="cssscccsscccccccccccssccssscscccscccscsccscsscccccccccscccccccccsccccssccccccc"
           inkscape:export-xdpi="96"
           inkscape:export-ydpi="96" />
      </g>
    </g>
  </g>
</svg>
